<svg width="30" height="30" viewBox="0 0 30 30" fill="none" xmlns="http://www.w3.org/2000/svg">
<path d="M21.0172 15.1451L22.3926 16.5317C22.9123 17.0555 22.9088 17.9014 22.385 18.421C22.385 18.421 22.385 18.421 22.385 18.421L15.4049 25.345C14.8811 25.8647 14.0352 25.8613 13.5156 25.3375L13.5156 25.3375M21.0172 15.1451L14.0481 24.8093L13.5156 25.3375M21.0172 15.1451C20.4976 14.6213 19.6518 14.6178 19.1279 15.1375C19.1279 15.1375 19.1279 15.1375 19.1279 15.1376L14.4828 19.7453L12.7659 18.0145C12.7659 18.0144 12.7659 18.0144 12.7659 18.0144C12.2463 17.4906 11.4003 17.4872 10.8765 18.0069L9.48999 19.3823L10.0182 19.9148L9.48997 19.3823C8.96619 19.9019 8.96272 20.7478 9.48238 21.2716L21.0172 15.1451ZM13.5156 25.3375L9.48242 21.2716L13.5156 25.3375ZM9.6875 6.875H10.4375V6.125V3.75H12.0625V6.125V6.875H12.8125H19.0625H19.8125V6.125V3.75H21.4375V6.125V6.875H22.1875H24.5312C25.4115 6.875 26.125 7.58853 26.125 8.46875V10.0625H5.75V8.46875C5.75 7.58853 6.46353 6.875 7.34375 6.875H9.6875ZM5.75 13.125H26.125V25.6562C26.125 26.5365 25.4115 27.25 24.5312 27.25H7.34375C6.46353 27.25 5.75 26.5365 5.75 25.6562V13.125Z" stroke="#A6A6D3" stroke-width="1.5"/>
</svg>
