<svg width="30" height="30" viewBox="0 0 30 30" fill="none" xmlns="http://www.w3.org/2000/svg">
<path d="M26.2891 10.8125H5.58594C5.26235 10.8125 5 10.5501 5 10.2266V8.46875C5 7.17432 6.04932 6.125 7.34375 6.125H9.6875V3.58594C9.6875 3.26235 9.94985 3 10.2734 3H12.2266C12.5501 3 12.8125 3.26235 12.8125 3.58594V6.125H19.0625V3.58594C19.0625 3.26235 19.3249 3 19.6484 3H21.6016C21.9251 3 22.1875 3.26235 22.1875 3.58594V6.125H24.5312C25.8257 6.125 26.875 7.17432 26.875 8.46875V10.2266C26.875 10.5501 26.6126 10.8125 26.2891 10.8125ZM5.58594 12.375H26.2891C26.6126 12.375 26.875 12.6374 26.875 12.9609V25.6562C26.875 26.9507 25.8257 28 24.5312 28H7.34375C6.04932 28 5 26.9507 5 25.6562V12.9609C5 12.6374 5.26235 12.375 5.58594 12.375ZM21.8602 17.0599L20.4847 15.6733C20.2568 15.4436 19.8858 15.442 19.6561 15.67L14.4785 20.8059L12.2334 18.5426C12.0055 18.3129 11.6345 18.3114 11.4047 18.5393L10.0182 19.9148C9.78843 20.1427 9.78691 20.5137 10.0148 20.7434L14.0481 24.8093C14.276 25.039 14.647 25.0405 14.8767 24.8126L21.8568 17.8885C22.0866 17.6606 22.0881 17.2896 21.8602 17.0599Z" fill="#000080"/>
</svg>
