<svg width="32" height="32" viewBox="0 0 32 32" fill="none" xmlns="http://www.w3.org/2000/svg">
<path d="M15.9999 4.79995C15.1513 4.79995 14.3373 5.13709 13.7372 5.73721C13.1371 6.33733 12.7999 7.15126 12.7999 7.99995C12.7999 8.84864 13.1371 9.66258 13.7372 10.2627C14.3373 10.8628 15.1513 11.2 15.9999 11.2C16.8486 11.2 17.6626 10.8628 18.2627 10.2627C18.8628 9.66258 19.1999 8.84864 19.1999 7.99995C19.1999 7.15126 18.8628 6.33733 18.2627 5.73721C17.6626 5.13709 16.8486 4.79995 15.9999 4.79995ZM11.1999 7.99995C11.1999 6.72691 11.7057 5.50601 12.6058 4.60584C13.506 3.70566 14.7269 3.19995 15.9999 3.19995C17.273 3.19995 18.4939 3.70566 19.3941 4.60584C20.2942 5.50601 20.7999 6.72691 20.7999 7.99995C20.7999 9.27299 20.2942 10.4939 19.3941 11.3941C18.4939 12.2942 17.273 12.8 15.9999 12.8C14.7269 12.8 13.506 12.2942 12.6058 11.3941C11.7057 10.4939 11.1999 9.27299 11.1999 7.99995ZM8.08475 15.9936C8.03035 16.2538 8.00315 16.5226 8.00315 16.8V17.672L3.79355 18.8C3.58861 18.8547 3.41381 18.9886 3.30759 19.1723C3.20137 19.3559 3.17244 19.5742 3.22715 19.7792L4.26235 23.6432C4.56607 24.7748 5.27321 25.7562 6.2505 26.4026C7.22779 27.0489 8.40773 27.3154 9.56795 27.152C9.93595 27.648 10.3599 28.1024 10.8303 28.5008L10.5567 28.5808C9.74486 28.7985 8.89803 28.8542 8.06461 28.7447C7.23119 28.6352 6.42751 28.3625 5.69947 27.9423C4.97144 27.5222 4.33331 26.9627 3.82153 26.2958C3.30974 25.629 2.93434 24.8679 2.71675 24.056L1.68155 20.192C1.60001 19.8875 1.57925 19.57 1.62043 19.2575C1.66162 18.945 1.76395 18.6437 1.92159 18.3708C2.07923 18.0978 2.28909 17.8586 2.53917 17.6668C2.78926 17.475 3.07469 17.3343 3.37915 17.2528L8.08475 15.9936ZM24.0031 17.672V16.8C24.0021 16.5226 23.9754 16.2538 23.9231 15.9936L28.6271 17.2544C29.2417 17.4193 29.7657 17.8216 30.0837 18.3728C30.4017 18.924 30.4879 19.5789 30.3231 20.1936L29.2879 24.0576C29.0641 24.8925 28.6735 25.6734 28.1396 26.3532C27.6057 27.0331 26.9396 27.5977 26.1816 28.0131C25.4235 28.4284 24.5891 28.6859 23.7288 28.77C22.8685 28.8541 22.0001 28.7631 21.1759 28.5023C21.6485 28.1013 22.0693 27.6517 22.4383 27.1536C23.5985 27.3165 24.7783 27.0496 25.7552 26.403C26.7322 25.7564 27.439 24.7748 27.7423 23.6432L28.7791 19.7792C28.8339 19.5742 28.8049 19.3559 28.6987 19.1723C28.5925 18.9886 28.4177 18.8547 28.2127 18.8L24.0031 17.672ZM23.9999 10.4C23.9999 9.76343 24.2528 9.15298 24.7029 8.70289C25.153 8.25281 25.7634 7.99995 26.3999 7.99995C27.0365 7.99995 27.6469 8.25281 28.097 8.70289C28.5471 9.15298 28.7999 9.76343 28.7999 10.4C28.7999 11.0365 28.5471 11.6469 28.097 12.097C27.6469 12.5471 27.0365 12.8 26.3999 12.8C25.7634 12.8 25.153 12.5471 24.7029 12.097C24.2528 11.6469 23.9999 11.0365 23.9999 10.4ZM26.3999 6.39995C25.3391 6.39995 24.3217 6.82138 23.5715 7.57152C22.8214 8.32167 22.3999 9.33909 22.3999 10.4C22.3999 11.4608 22.8214 12.4782 23.5715 13.2284C24.3217 13.9785 25.3391 14.4 26.3999 14.4C27.4608 14.4 28.4782 13.9785 29.2284 13.2284C29.9785 12.4782 30.3999 11.4608 30.3999 10.4C30.3999 9.33909 29.9785 8.32167 29.2284 7.57152C28.4782 6.82138 27.4608 6.39995 26.3999 6.39995ZM5.59995 7.99995C4.96343 7.99995 4.35298 8.25281 3.90289 8.70289C3.4528 9.15298 3.19995 9.76343 3.19995 10.4C3.19995 11.0365 3.4528 11.6469 3.90289 12.097C4.35298 12.5471 4.96343 12.8 5.59995 12.8C6.23647 12.8 6.84692 12.5471 7.297 12.097C7.74709 11.6469 7.99995 11.0365 7.99995 10.4C7.99995 9.76343 7.74709 9.15298 7.297 8.70289C6.84692 8.25281 6.23647 7.99995 5.59995 7.99995ZM1.59995 10.4C1.59995 9.33909 2.02138 8.32167 2.77152 7.57152C3.52167 6.82138 4.53908 6.39995 5.59995 6.39995C6.66081 6.39995 7.67823 6.82138 8.42838 7.57152C9.17852 8.32167 9.59995 9.33909 9.59995 10.4C9.59995 11.4608 9.17852 12.4782 8.42838 13.2284C7.67823 13.9785 6.66081 14.4 5.59995 14.4C4.53908 14.4 3.52167 13.9785 2.77152 13.2284C2.02138 12.4782 1.59995 11.4608 1.59995 10.4ZM11.9999 14.4C11.3634 14.4 10.753 14.6528 10.3029 15.1029C9.8528 15.553 9.59995 16.1634 9.59995 16.8V22.4C9.59995 24.0973 10.2742 25.7252 11.4745 26.9254C12.6747 28.1257 14.3026 28.8 15.9999 28.8C17.6973 28.8 19.3252 28.1257 20.5254 26.9254C21.7257 25.7252 22.3999 24.0973 22.3999 22.4V16.8C22.3999 16.1634 22.1471 15.553 21.697 15.1029C21.2469 14.6528 20.6365 14.4 19.9999 14.4H11.9999ZM11.1999 16.8C11.1999 16.5878 11.2842 16.3843 11.4343 16.2343C11.5843 16.0842 11.7878 16 11.9999 16H19.9999C20.2121 16 20.4156 16.0842 20.5656 16.2343C20.7157 16.3843 20.7999 16.5878 20.7999 16.8V22.4C20.7999 23.673 20.2942 24.8939 19.3941 25.7941C18.4939 26.6942 17.273 27.2 15.9999 27.2C14.7269 27.2 13.506 26.6942 12.6058 25.7941C11.7057 24.8939 11.1999 23.673 11.1999 22.4V16.8Z" fill="#0D1619"/>
</svg>
