<svg width="20" height="20" viewBox="0 0 20 20" fill="none" xmlns="http://www.w3.org/2000/svg">
<path d="M9.99979 13.5713C9.72014 13.5714 9.44661 13.4894 9.2131 13.3356C8.9796 13.1817 8.7964 12.9626 8.68622 12.7056C8.45575 12.6512 8.22888 12.5825 8.00693 12.4999L7.99479 12.4956C7.34306 12.251 6.74152 11.8893 6.21979 11.4285C5.52078 10.8118 4.98323 10.0336 4.65401 9.16151C4.32479 8.28946 4.21389 7.35012 4.33099 6.42539C4.44809 5.50065 4.78962 4.6186 5.32582 3.85614C5.86201 3.09368 6.57659 2.47397 7.40723 2.05103C8.23788 1.6281 9.15937 1.41478 10.0914 1.42969C11.0234 1.44459 11.9376 1.68726 12.7543 2.13654C13.571 2.58582 14.2654 3.22807 14.7769 4.00728C15.2885 4.7865 15.6016 5.67902 15.6891 6.60702C15.7169 6.90202 15.4748 7.14274 15.1784 7.14274C14.8826 7.14274 14.6462 6.90202 14.6119 6.60774C14.5175 5.7958 14.2104 5.02319 13.7216 4.36799C13.2329 3.7128 12.5798 3.19825 11.8285 2.87637C11.0771 2.55448 10.2541 2.43666 9.44259 2.53483C8.6311 2.63299 7.85991 2.94366 7.20697 3.43542C6.55403 3.92718 6.0425 4.5826 5.72407 5.33544C5.40565 6.08828 5.29162 6.91184 5.39352 7.72287C5.49542 8.5339 5.80963 9.30365 6.30439 9.95432C6.79915 10.605 7.45693 11.1135 8.21122 11.4285L8.23979 11.4406C8.38265 11.4992 8.52931 11.5508 8.67979 11.5956C8.81739 11.2603 9.07727 10.9899 9.40679 10.8391C9.73631 10.6882 10.1108 10.6682 10.4545 10.7832C10.7982 10.8982 11.0854 11.1394 11.2578 11.4582C11.4303 11.7769 11.4752 12.1493 11.3834 12.4999C11.3042 12.8066 11.1253 13.0783 10.8748 13.2722C10.6244 13.4662 10.3166 13.5714 9.99979 13.5713ZM4.99979 12.4999H5.83479C5.43544 12.1886 5.0718 11.8341 4.75051 11.4427C4.22887 11.5038 3.74784 11.7544 3.39876 12.1468C3.04968 12.5392 2.85687 13.0461 2.85693 13.5713V14.082C2.85693 16.7377 5.86408 18.5713 9.99979 18.5713C14.1355 18.5713 17.1426 16.637 17.1426 14.082V13.5713C17.1426 13.003 16.9169 12.4579 16.515 12.0561C16.1132 11.6542 15.5681 11.4285 14.9998 11.4285H12.3962C12.4997 11.7757 12.5266 12.1413 12.4748 12.4999H14.9998L15.1034 12.5049C15.3683 12.5306 15.6143 12.6541 15.7932 12.8512C15.9721 13.0484 16.0712 13.3051 16.0712 13.5713V14.082L16.0676 14.197C15.9676 15.997 13.5184 17.4999 9.99979 17.4999C6.34908 17.4999 3.92836 15.992 3.92836 14.082V13.5713L3.93336 13.4677C3.9591 13.2028 4.08257 12.9568 4.27971 12.7779C4.47686 12.599 4.73356 12.4999 4.99979 12.4999ZM13.5712 7.14274C13.5713 7.78972 13.3957 8.42459 13.0631 8.97952C12.7304 9.53444 12.2533 9.98859 11.6826 10.2935C11.2223 9.87463 10.6222 9.6426 9.99979 9.64274C10.3281 9.64274 10.6532 9.57807 10.9565 9.45244C11.2598 9.3268 11.5354 9.14265 11.7676 8.91051C11.9997 8.67836 12.1839 8.40276 12.3095 8.09945C12.4351 7.79613 12.4998 7.47104 12.4998 7.14274C12.4998 6.81443 12.4351 6.48934 12.3095 6.18603C12.1839 5.88272 11.9997 5.60712 11.7676 5.37497C11.5354 5.14283 11.2598 4.95868 10.9565 4.83304C10.6532 4.7074 10.3281 4.64274 9.99979 4.64274C9.33675 4.64274 8.70086 4.90613 8.23202 5.37497C7.76318 5.84381 7.49979 6.4797 7.49979 7.14274C7.49979 7.80578 7.76318 8.44166 8.23202 8.91051C8.70086 9.37935 9.33675 9.64274 9.99979 9.64274C9.35122 9.64274 8.76122 9.88988 8.31765 10.2942C7.74728 9.98954 7.27032 9.53579 6.93765 8.98131C6.65441 8.50944 6.48405 7.97849 6.43988 7.42991C6.39571 6.88133 6.47892 6.32996 6.68301 5.81885C6.8871 5.30774 7.20656 4.85071 7.61644 4.48344C8.02632 4.11616 8.51553 3.84859 9.04589 3.70159C9.57625 3.55459 10.1334 3.53216 10.6739 3.63603C11.2143 3.73991 11.7235 3.96728 12.1616 4.30041C12.5996 4.63354 12.9548 5.0634 13.1993 5.55645C13.4439 6.04949 13.5711 6.59238 13.5712 7.14274Z" fill="black"/>
</svg>
