<svg width="28" height="28" viewBox="0 0 28 28" fill="none" xmlns="http://www.w3.org/2000/svg">
<path d="M26.6667 14.0002H23.852M23.852 14.0002C23.852 16.6133 22.8146 19.1186 20.9669 20.9664C19.1192 22.8141 16.6131 23.8522 14 23.8522M23.852 14.0002C23.852 11.3871 22.8146 8.88034 20.9669 7.03261C19.1192 5.18488 16.6131 4.14816 14 4.14816M14 1.3335V4.14816M14 4.14816C11.3871 4.14816 8.88119 5.18481 7.03358 7.03241C5.18597 8.88002 4.148 11.3859 4.148 13.9988C4.148 16.6117 5.18597 19.1176 7.03358 20.9652C8.88119 22.8129 11.3871 23.8522 14 23.8522M1.33333 14.0002H4.148M14 26.6668V23.8522" stroke="#000080" stroke-width="1.5" stroke-miterlimit="10" stroke-linecap="round"/>
<path d="M14 19.6293C15.493 19.6293 16.9248 19.0362 17.9805 17.9805C19.0362 16.9248 19.6293 15.4929 19.6293 13.9999C19.6293 12.5069 19.0362 11.0751 17.9805 10.0194C16.9248 8.96369 15.493 8.37061 14 8.37061C12.507 8.37061 11.0752 8.96369 10.0195 10.0194C8.96376 11.0751 8.37067 12.5069 8.37067 13.9999C8.37067 15.4929 8.96376 16.9248 10.0195 17.9805C11.0752 19.0362 12.507 19.6293 14 19.6293Z" stroke="#000080" stroke-width="1.5" stroke-miterlimit="10" stroke-linecap="round"/>
</svg>
