<svg width="23" height="23" viewBox="0 0 23 23" fill="none" xmlns="http://www.w3.org/2000/svg">
<path d="M14.6589 1.54064C14.9709 1.46892 15.2976 1.49614 15.5935 1.61853C15.8893 1.74091 16.1398 1.95239 16.31 2.2236L17.8424 4.67022C17.966 4.86728 18.1325 5.03383 18.3296 5.15739L20.7762 6.68981C21.048 6.8599 21.26 7.1105 21.3827 7.40671C21.5053 7.70293 21.5326 8.03003 21.4607 8.34247L20.8132 11.1545C20.761 11.3817 20.761 11.6179 20.8132 11.8451L21.4607 14.6587C21.5319 14.9707 21.5043 15.2971 21.3816 15.5927C21.259 15.8883 21.0474 16.1384 20.7762 16.3083L18.3296 17.8422C18.1325 17.9658 17.966 18.1323 17.8424 18.3294L16.31 20.776C16.14 21.0475 15.8896 21.2593 15.5937 21.382C15.2978 21.5046 14.9711 21.5321 14.6589 21.4605L11.8453 20.813C11.6186 20.761 11.383 20.761 11.1562 20.813L8.34265 21.4605C8.03043 21.5321 7.70367 21.5046 7.40777 21.382C7.11187 21.2593 6.86153 21.0475 6.69153 20.776L5.15911 18.3294C5.03511 18.1322 4.86802 17.9656 4.67041 17.8422L2.22532 16.3098C1.95383 16.1398 1.74204 15.8895 1.61937 15.5936C1.4967 15.2977 1.46925 14.9709 1.54082 14.6587L2.18678 11.8451C2.23901 11.6179 2.23901 11.3817 2.18678 11.1545L1.53928 8.34247C1.46751 8.02986 1.49502 7.70265 1.61799 7.40642C1.74096 7.11019 1.95326 6.85968 2.22532 6.68981L4.67041 5.15739C4.86802 5.03401 5.03511 4.86745 5.15911 4.67022L6.69153 2.2236C6.86165 1.95268 7.11183 1.7414 7.4074 1.61903C7.70296 1.49666 8.02928 1.46926 8.34111 1.54064L11.1562 2.1866C11.383 2.2386 11.6186 2.2386 11.8453 2.1866L14.6589 1.54064Z" stroke="#0D1619" stroke-width="1.33333"/>
<path d="M7.66895 12.3263L10.8062 15.331L15.331 7.66895" stroke="#0D1619" stroke-width="1.33333" stroke-linecap="round" stroke-linejoin="round"/>
</svg>
