<svg width="30" height="27" viewBox="0 0 30 27" fill="none" xmlns="http://www.w3.org/2000/svg">
<path d="M16.3256 0.812402C15.974 0.460894 15.4971 0.263428 15 0.263428C14.5028 0.263428 14.026 0.460894 13.6743 0.812402L1.21121 13.2737C1.12405 13.3608 1.05491 13.4643 1.00773 13.5782C0.960559 13.6921 0.936279 13.8141 0.936279 13.9374C0.936279 14.0607 0.960559 14.1827 1.00773 14.2966C1.05491 14.4105 1.12405 14.514 1.21121 14.6012C1.38725 14.7772 1.62601 14.8761 1.87496 14.8761C1.99823 14.8761 2.1203 14.8518 2.23418 14.8046C2.34807 14.7575 2.45155 14.6883 2.53871 14.6012L3.74996 13.388V23.3124C3.74996 24.0583 4.04628 24.7737 4.57373 25.3011C5.10117 25.8286 5.81654 26.1249 6.56246 26.1249H23.4375C24.1834 26.1249 24.8988 25.8286 25.4262 25.3011C25.9536 24.7737 26.25 24.0583 26.25 23.3124V13.388L27.4612 14.6012C27.6373 14.7772 27.876 14.8761 28.125 14.8761C28.3739 14.8761 28.6127 14.7772 28.7887 14.6012C28.9648 14.4251 29.0636 14.1864 29.0636 13.9374C29.0636 13.6884 28.9648 13.4497 28.7887 13.2737L24.375 8.86178V2.6874C24.375 2.43876 24.2762 2.20031 24.1004 2.02449C23.9246 1.84867 23.6861 1.7499 23.4375 1.7499H21.5625C21.3138 1.7499 21.0754 1.84867 20.8996 2.02449C20.7237 2.20031 20.625 2.43876 20.625 2.6874V5.11178L16.3256 0.812402ZM24.375 11.513V23.3124C24.375 23.561 24.2762 23.7995 24.1004 23.9753C23.9246 24.1511 23.6861 24.2499 23.4375 24.2499H6.56246C6.31382 24.2499 6.07537 24.1511 5.89955 23.9753C5.72374 23.7995 5.62496 23.561 5.62496 23.3124V11.513L15 2.13803L24.375 11.513Z" fill="#A6A6D3"/>
</svg>
