<svg width="30" height="30" viewBox="0 0 30 30" fill="none" xmlns="http://www.w3.org/2000/svg">
<path d="M16.3256 2.8124C15.974 2.46089 15.4971 2.26343 15 2.26343C14.5028 2.26343 14.026 2.46089 13.6743 2.8124L1.21121 15.2737C1.12405 15.3608 1.05491 15.4643 1.00773 15.5782C0.960559 15.6921 0.936279 15.8141 0.936279 15.9374C0.936279 16.0607 0.960559 16.1827 1.00773 16.2966C1.05491 16.4105 1.12405 16.514 1.21121 16.6012C1.38725 16.7772 1.62601 16.8761 1.87496 16.8761C1.99823 16.8761 2.1203 16.8518 2.23418 16.8046C2.34807 16.7575 2.45155 16.6883 2.53871 16.6012L15 4.13803L27.4612 16.6012C27.6373 16.7772 27.876 16.8761 28.125 16.8761C28.3739 16.8761 28.6127 16.7772 28.7887 16.6012C28.9648 16.4251 29.0636 16.1864 29.0636 15.9374C29.0636 15.6884 28.9648 15.4497 28.7887 15.2737L24.375 10.8618V4.6874C24.375 4.43876 24.2762 4.20031 24.1004 4.02449C23.9246 3.84867 23.6861 3.7499 23.4375 3.7499H21.5625C21.3138 3.7499 21.0754 3.84867 20.8995 4.02449C20.7237 4.20031 20.625 4.43876 20.625 4.6874V7.11178L16.3256 2.8124Z" fill="#000080"/>
<path d="M15 6.17432L26.25 17.4243V25.3124C26.25 26.0584 25.9537 26.7737 25.4262 27.3012C24.8988 27.8286 24.1834 28.1249 23.4375 28.1249H6.5625C5.81658 28.1249 5.10121 27.8286 4.57376 27.3012C4.04632 26.7737 3.75 26.0584 3.75 25.3124V17.4243L15 6.17432Z" fill="#000080"/>
</svg>
