<svg width="20" height="27" viewBox="0 0 20 27" fill="none" xmlns="http://www.w3.org/2000/svg">
<path d="M9.58752 25.4664C8.21922 23.5005 7.05749 21.8604 6.07112 20.4678C4.31184 17.9841 3.11037 16.2879 2.28948 14.9351C1.65842 13.8952 1.28101 13.1023 1.05633 12.3504C0.833416 11.6044 0.75 10.8624 0.75 9.91071C0.75 4.8577 4.88499 0.75 10 0.75C15.115 0.75 19.25 4.8577 19.25 9.91071C19.25 10.8624 19.1666 11.6044 18.9437 12.3504C18.719 13.1023 18.3416 13.8952 17.7105 14.9351C16.8896 16.2879 15.6882 17.9841 13.9289 20.4678C12.9425 21.8604 11.7808 23.5005 10.4125 25.4664C10.2143 25.7493 9.78563 25.7493 9.58752 25.4664ZM10 14.7902C12.7091 14.7902 14.9167 12.6119 14.9167 9.91071C14.9167 7.20952 12.7091 5.03125 10 5.03125C7.29094 5.03125 5.08333 7.20952 5.08333 9.91071C5.08333 12.6119 7.29094 14.7902 10 14.7902Z" stroke="#A6A6D3" stroke-width="1.5"/>
</svg>
