<svg width="20" height="27" viewBox="0 0 20 27" fill="none" xmlns="http://www.w3.org/2000/svg">
<path d="M8.97229 25.8953C1.40469 15.0225 0 13.9066 0 9.91071C0 4.43716 4.47714 0 10 0C15.5229 0 20 4.43716 20 9.91071C20 13.9066 18.5953 15.0225 11.0277 25.8953C10.5311 26.6063 9.46885 26.6063 8.97229 25.8953ZM10 14.0402C12.3012 14.0402 14.1667 12.1914 14.1667 9.91071C14.1667 7.63006 12.3012 5.78125 10 5.78125C7.6988 5.78125 5.83333 7.63006 5.83333 9.91071C5.83333 12.1914 7.6988 14.0402 10 14.0402Z" fill="#000080"/>
</svg>
