<svg width="20" height="20" viewBox="0 0 20 20" fill="none" xmlns="http://www.w3.org/2000/svg">
<path d="M15.3198 16.6666C15.7037 16.6666 16.024 16.5383 16.2807 16.2816C16.5373 16.0249 16.6659 15.7044 16.6665 15.3199V13.1416C16.6665 13.0233 16.6268 12.9241 16.5473 12.8441C16.4679 12.7641 16.3687 12.7244 16.2498 12.7249C16.1309 12.7255 16.0318 12.7652 15.9523 12.8441C15.8729 12.923 15.8332 13.0221 15.8332 13.1416V15.3208C15.8332 15.4491 15.7798 15.5669 15.6732 15.6741C15.5665 15.7813 15.449 15.8346 15.3207 15.8341H4.679C4.55122 15.8341 4.43372 15.7808 4.3265 15.6741C4.21928 15.5674 4.16594 15.4496 4.1665 15.3208V4.67992C4.1665 4.55159 4.21983 4.43381 4.3265 4.32659C4.43316 4.21936 4.55094 4.16603 4.67983 4.16659H15.3198C15.4482 4.16659 15.5659 4.21992 15.6732 4.32659C15.7804 4.43325 15.8337 4.55103 15.8332 4.67992V6.85825C15.8332 6.97658 15.8729 7.07575 15.9523 7.15575C16.0318 7.23575 16.1309 7.27547 16.2498 7.27492C16.3687 7.27436 16.4679 7.23464 16.5473 7.15575C16.6268 7.07686 16.6665 6.9777 16.6665 6.85825V4.67992C16.6665 4.29603 16.5379 3.97575 16.2807 3.71909C16.0234 3.46242 15.7032 3.33381 15.3198 3.33325H4.679C4.29566 3.33325 3.97539 3.46186 3.71816 3.71909C3.46094 3.97631 3.33261 4.29659 3.33316 4.67992V15.3208C3.33316 15.7041 3.4615 16.0244 3.71816 16.2816C3.97483 16.5388 4.29539 16.6671 4.67983 16.6666H15.3198ZM9.29816 10.4166H16.2498C16.3682 10.4166 16.4673 10.3769 16.5473 10.2974C16.6273 10.218 16.6671 10.1188 16.6665 9.99992C16.6659 9.88103 16.6262 9.78186 16.5473 9.70242C16.4684 9.62297 16.3693 9.58325 16.2498 9.58325H9.29816L11.2565 7.62492C11.3376 7.54381 11.3801 7.44825 11.384 7.33825C11.3879 7.22825 11.3454 7.12714 11.2565 7.03492C11.1643 6.94325 11.0651 6.89659 10.959 6.89492C10.8523 6.89325 10.7532 6.93853 10.6615 7.03075L8.16316 9.52825C8.09094 9.60158 8.04011 9.67603 8.01066 9.75159C7.98122 9.82714 7.9665 9.90992 7.9665 9.99992C7.9665 10.0899 7.98094 10.1727 8.00983 10.2483C8.03872 10.3238 8.08983 10.3983 8.16316 10.4716L10.6615 12.9691C10.7426 13.0502 10.839 13.0927 10.9507 13.0966C11.0623 13.1005 11.1643 13.0566 11.2565 12.9649C11.3454 12.8727 11.3904 12.7744 11.3915 12.6699C11.3932 12.5649 11.3482 12.4666 11.2565 12.3749L9.29816 10.4166Z" fill="black"/>
</svg>
