<svg width="20" height="20" viewBox="0 0 20 20" fill="none" xmlns="http://www.w3.org/2000/svg">
<path d="M11.2501 3.33325C10.9185 3.33325 10.6006 3.46495 10.3662 3.69937C10.1318 3.93379 10.0001 4.25173 10.0001 4.58325C10.0001 4.91477 10.1318 5.23272 10.3662 5.46714C10.6006 5.70156 10.9185 5.83325 11.2501 5.83325C11.5816 5.83325 11.8995 5.70156 12.1339 5.46714C12.3684 5.23272 12.5001 4.91477 12.5001 4.58325C12.5001 4.25173 12.3684 3.93379 12.1339 3.69937C11.8995 3.46495 11.5816 3.33325 11.2501 3.33325ZM10.9501 7.30825C9.9584 7.39159 7.25006 9.54992 7.25006 9.54992C7.0834 9.67492 7.1334 9.66659 7.26673 9.89992C7.40006 10.1249 7.3834 10.1416 7.54173 10.0333C7.7084 9.92492 7.9834 9.74992 8.44173 9.46659C10.2084 8.33325 8.72507 10.9499 7.96673 15.3583C7.66673 17.5416 9.6334 16.4166 10.1417 16.0833C10.6417 15.7583 11.9834 14.8333 12.1167 14.7416C12.3001 14.6166 12.1667 14.5166 12.0251 14.3083C11.9251 14.1666 11.8251 14.2666 11.8251 14.2666C11.2834 14.6249 10.2917 15.3749 10.1584 14.8999C10.0001 14.4249 11.0167 11.1666 11.5751 8.92492C11.6667 8.39159 11.9167 7.22492 10.9501 7.30825Z" fill="black"/>
</svg>
