<svg width="24" height="24" viewBox="0 0 24 24" fill="none" xmlns="http://www.w3.org/2000/svg">
<g clip-path="url(#clip0_4661_1214)">
<path d="M0 17.9999C0 18.7072 0.280952 19.3854 0.781049 19.8855C1.28115 20.3856 1.95942 20.6666 2.66667 20.6666H21.3333C22.0406 20.6666 22.7189 20.3856 23.219 19.8855C23.719 19.3854 24 18.7072 24 17.9999V15.3333H0V17.9999Z" fill="#DA0001"/>
<path d="M0 8.66675H24V15.3334H0V8.66675Z" fill="#EEEEEE"/>
<path d="M24 8.66659V5.99992C24 5.29267 23.719 4.6144 23.219 4.1143C22.7189 3.6142 22.0406 3.33325 21.3333 3.33325H2.66667C1.95942 3.33325 1.28115 3.6142 0.781049 4.1143C0.280952 4.6144 0 5.29267 0 5.99992L0 8.66659H24Z" fill="#239F40"/>
<path d="M0 15.3333H24V15.9999H0V15.3333Z" fill="#E96667"/>
<path d="M12.9765 9.97944C13.6145 10.3061 15.0018 11.9481 13.5085 13.8001C14.4358 13.5948 15.6165 10.8614 12.9765 9.97944ZM11.0185 9.97944C8.37915 10.8614 9.55915 13.5948 10.4865 13.8001C8.99315 11.9481 10.3805 10.3061 11.0185 9.97944ZM11.9871 9.8841C12.0138 10.0154 12.7211 10.1748 12.6365 9.5021C12.5245 9.7741 12.2005 9.7661 11.9911 9.6401C11.7031 9.80077 11.4345 9.76144 11.3325 9.48877C11.2338 9.99144 11.7238 10.1388 11.9871 9.8841Z" fill="#BE1931"/>
<path d="M13.6916 11.936C13.6816 11.104 13.2403 10.368 12.8056 10.07C13.0923 10.4214 13.9736 12.3607 12.2823 13.6374L12.3136 10.2394L11.9969 9.96069L11.6803 10.226L11.7336 13.6567L11.7216 13.6467C10.0129 12.3707 10.8996 10.422 11.1869 10.07C10.7523 10.368 10.3103 11.104 10.3009 11.936C10.2923 12.65 10.6189 13.4314 11.5236 14.0727C11.1583 14.1666 10.7821 14.2117 10.4049 14.2067C10.7143 14.3754 11.2983 14.3347 11.7429 14.294L11.7436 14.3394L12.0089 14.6307L12.2756 14.3274V14.2927C12.7236 14.334 13.3203 14.3787 13.6349 14.2074C13.2453 14.2138 12.8567 14.166 12.4803 14.0654C13.3763 13.4247 13.7003 12.6474 13.6916 11.936Z" fill="#BE1931"/>
<path d="M0 8H24V8.66667H0V8Z" fill="#7BC58C"/>
</g>
<defs>
<clipPath id="clip0_4661_1214">
<rect width="24" height="24" fill="white"/>
</clipPath>
</defs>
</svg>
