<svg width="32" height="32" viewBox="0 0 32 32" fill="none" xmlns="http://www.w3.org/2000/svg">
<g clip-path="url(#clip0_4661_1074)">
<path d="M32 23.9999C32 24.9429 31.6254 25.8473 30.9586 26.514C30.2918 27.1808 29.3874 27.5554 28.4444 27.5554H3.55556C2.61256 27.5554 1.70819 27.1808 1.0414 26.514C0.374602 25.8473 0 24.9429 0 23.9999V7.99989C0 7.0569 0.374602 6.15253 1.0414 5.48573C1.70819 4.81894 2.61256 4.44434 3.55556 4.44434H28.4444C29.3874 4.44434 30.2918 4.81894 30.9586 5.48573C31.6254 6.15253 32 7.0569 32 7.99989V23.9999Z" fill="#E30917"/>
<path d="M14.222 21.3334C12.8075 21.3334 11.4509 20.7715 10.4507 19.7713C9.45055 18.7712 8.88865 17.4146 8.88865 16.0001C8.88865 14.5856 9.45055 13.2291 10.4507 12.2289C11.4509 11.2287 12.8075 10.6668 14.222 10.6668C15.3864 10.6668 16.462 11.0446 17.3393 11.6783C16.7277 10.9825 15.9747 10.425 15.1306 10.0432C14.2865 9.66137 13.3707 9.46395 12.4442 9.46411C10.7107 9.46411 9.04829 10.1527 7.82255 11.3785C6.59682 12.6042 5.9082 14.2667 5.9082 16.0001C5.90809 16.8585 6.07706 17.7085 6.40547 18.5016C6.73388 19.2947 7.2153 20.0153 7.82224 20.6223C8.42917 21.2294 9.14974 21.7109 9.94278 22.0394C10.7358 22.3679 11.5858 22.537 12.4442 22.537C14.3953 22.537 16.142 21.6774 17.3393 20.3219C16.4332 20.9801 15.3419 21.3342 14.222 21.3334ZM17.7002 16.2046L19.8691 16.7041L20.0646 18.9201L21.2095 17.0126L23.3784 17.5112L21.9171 15.833L23.0611 13.9246L21.014 14.7957L19.5526 13.1166L19.7482 15.3334L17.7002 16.2046Z" fill="#EEEEEE"/>
</g>
<defs>
<clipPath id="clip0_4661_1074">
<rect width="32" height="32" fill="white"/>
</clipPath>
</defs>
</svg>
