<svg width="25" height="25" viewBox="0 0 25 25" fill="none" xmlns="http://www.w3.org/2000/svg">
<path fill-rule="evenodd" clip-rule="evenodd" d="M4.16667 1.66667C3.50363 1.66667 2.86774 1.93006 2.3989 2.3989C1.93006 2.86774 1.66667 3.50363 1.66667 4.16667V8.33333H0V4.16667C0 3.0616 0.438987 2.00179 1.22039 1.22039C2.00179 0.438987 3.0616 0 4.16667 0L8.33333 0V1.66667H4.16667ZM20.8333 1.66667H16.6667V0H20.8333C21.9384 0 22.9982 0.438987 23.7796 1.22039C24.561 2.00179 25 3.0616 25 4.16667V8.33333H23.3333V4.16667C23.3333 3.50363 23.0699 2.86774 22.6011 2.3989C22.1323 1.93006 21.4964 1.66667 20.8333 1.66667ZM8.33333 10H6.66667V8.33333H8.33333V10ZM18.3333 10H16.6667V8.33333H18.3333V10ZM8.16667 14.5C8.67121 15.1727 9.32546 15.7187 10.0776 16.0948C10.8297 16.4709 11.6591 16.6667 12.5 16.6667C13.3409 16.6667 14.1703 16.4709 14.9224 16.0948C15.6745 15.7187 16.3288 15.1727 16.8333 14.5L18.1667 15.5C15.3333 19.2783 9.66667 19.2783 6.83333 15.5L8.16667 14.5ZM0 20.8333V16.6667H1.66667V20.8333C1.66667 21.4964 1.93006 22.1323 2.3989 22.6011C2.86774 23.0699 3.50363 23.3333 4.16667 23.3333H8.33333V25H4.16667C3.0616 25 2.00179 24.561 1.22039 23.7796C0.438987 22.9982 0 21.9384 0 20.8333ZM25 16.6667V20.8333C25 21.9384 24.561 22.9982 23.7796 23.7796C22.9982 24.561 21.9384 25 20.8333 25H16.6667V23.3333H20.8333C21.4964 23.3333 22.1323 23.0699 22.6011 22.6011C23.0699 22.1323 23.3333 21.4964 23.3333 20.8333V16.6667H25Z" fill="#000080"/>
</svg>
